<svg width="20" height="20" viewBox="0 0 20 20" fill="none" xmlns="http://www.w3.org/2000/svg">
<path d="M7.26901 9.71791C7.26901 9.90188 7.12183 10.0491 6.93786 10.0491H5.69501C5.51104 10.0491 5.36386 9.90188 5.36386 9.71791V8.47506C5.36386 8.29109 5.51104 8.14391 5.69501 8.14391H6.93786C7.12183 8.14391 7.26901 8.29109 7.26901 8.47506V9.71791ZM9.86509 8.47915C9.86509 8.29518 9.71791 8.148 9.53393 8.148H8.29109C8.10711 8.148 7.95993 8.29518 7.95993 8.47915V9.72199C7.95993 9.90597 8.10711 10.0531 8.29109 10.0531H9.53393C9.71791 10.0531 9.86509 9.90597 9.86509 9.72199V8.47915ZM12.4612 8.47915C12.4612 8.29518 12.314 8.148 12.13 8.148H10.8872C10.7032 8.148 10.556 8.29518 10.556 8.47915V9.72199C10.556 9.90597 10.7032 10.0531 10.8872 10.0531H12.13C12.314 10.0531 12.4612 9.90597 12.4612 9.72199V8.47915ZM7.26901 11.0057C7.26901 10.8217 7.12183 10.6746 6.93786 10.6746H5.69501C5.51104 10.6746 5.36386 10.8217 5.36386 11.0057V12.2486C5.36386 12.4325 5.51104 12.5797 5.69501 12.5797H6.93786C7.12183 12.5797 7.26901 12.4325 7.26901 12.2486V11.0057ZM9.86509 11.0057C9.86509 10.8217 9.71791 10.6746 9.53393 10.6746H8.29109C8.10711 10.6746 7.95993 10.8217 7.95993 11.0057V12.2486C7.95993 12.4325 8.10711 12.5797 8.29109 12.5797H9.53393C9.71791 12.5797 9.86509 12.4325 9.86509 12.2486V11.0057ZM12.13 10.6746H10.8872C10.7032 10.6746 10.556 10.8217 10.556 11.0057V12.2486C10.556 12.4325 10.7032 12.5797 10.8872 12.5797H12.13C12.314 12.5797 12.4612 12.4325 12.4612 12.2486V11.0057C12.4612 10.8217 12.314 10.6746 12.13 10.6746ZM4.33769 13.2011H3.09894C2.91496 13.2011 2.76778 13.3483 2.76778 13.5323V14.7751C2.76778 14.9591 2.91496 15.1063 3.09894 15.1063H4.34178C4.52576 15.1063 4.67294 14.9591 4.67294 14.7751V13.5323C4.67294 13.3483 4.52167 13.2011 4.33769 13.2011ZM4.67294 11.0057C4.67294 10.8217 4.52576 10.6746 4.34178 10.6746H3.09894C2.91496 10.6746 2.76778 10.8217 2.76778 11.0057V12.2486C2.76778 12.4325 2.91496 12.5797 3.09894 12.5797H4.34178C4.52576 12.5797 4.67294 12.4325 4.67294 12.2486V11.0057ZM9.53393 13.2011H8.29109C8.10711 13.2011 7.95993 13.3483 7.95993 13.5323V14.7751C7.95993 14.9591 8.10711 15.1063 8.29109 15.1063H9.53393C9.71791 15.1063 9.86509 14.9591 9.86509 14.7751V13.5323C9.86509 13.3483 9.71791 13.2011 9.53393 13.2011ZM6.93786 13.2011H5.69501C5.51104 13.2011 5.36386 13.3483 5.36386 13.5323V14.7751C5.36386 14.9591 5.51104 15.1063 5.69501 15.1063H6.93786C7.12183 15.1063 7.26901 14.9591 7.26901 14.7751V13.5323C7.26901 13.3483 7.12183 13.2011 6.93786 13.2011ZM14.7261 10.0531C14.9101 10.0531 15.0572 9.90597 15.0572 9.72199V8.47915C15.0572 8.29518 14.9101 8.148 14.7261 8.148H13.4832C13.2993 8.148 13.1521 8.29518 13.1521 8.47915V9.72199C13.1521 9.90597 13.2993 10.0531 13.4832 10.0531H14.7261ZM1.95012 17.8046H11.3818C11.2306 17.3303 11.1447 16.8234 11.1406 16.3001H1.95012C1.70482 16.3001 1.50859 16.0998 1.50859 15.8585V6.97465H16.296V11.1079C16.8193 11.112 17.3262 11.1897 17.8005 11.341V3.86345C17.8005 2.78823 16.9256 1.91333 15.8504 1.91333H13.6672V0.711365C13.6672 0.318888 13.3483 0 12.9558 0H11.8479C11.4554 0 11.1365 0.318888 11.1365 0.711365V1.91742H6.66394V0.711365C6.66394 0.318888 6.34505 0 5.95258 0H4.84464C4.45217 0 4.13328 0.318888 4.13328 0.711365V1.91742H1.95012C0.874898 1.91742 0 2.79231 0 3.86754V15.8585C0 16.9297 0.874898 17.8046 1.95012 17.8046ZM20 16.2428C20 18.2993 18.332 19.9673 16.2756 19.9673C14.2191 19.9673 12.5511 18.2993 12.5511 16.2428C12.5511 14.1864 14.2191 12.5184 16.2756 12.5184C18.332 12.5184 20 14.1864 20 16.2428ZM18.1562 15.278C18.1562 15.1594 18.1112 15.045 18.0253 14.9632C17.8495 14.7874 17.5675 14.7874 17.3917 14.9632L15.7727 16.5822L15.1513 15.9608C14.9755 15.785 14.6934 15.785 14.5176 15.9608C14.4317 16.0466 14.3868 16.157 14.3868 16.2756C14.3868 16.3941 14.4317 16.5086 14.5176 16.5904L15.4538 17.5266C15.6296 17.7024 15.9117 17.7024 16.0875 17.5266L18.0213 15.5928C18.1112 15.511 18.1562 15.3966 18.1562 15.278Z" fill="#F7CD46"/>
</svg>
