<svg width="22" height="18" viewBox="0 0 22 18" fill="none" xmlns="http://www.w3.org/2000/svg">
<path d="M1 17V15.8571C1 13.3325 2.98984 11.2857 5.44444 11.2857H9.88889C12.3434 11.2857 14.3333 13.3325 14.3333 15.8571V17M14.3333 7.85714C16.1743 7.85714 17.6667 6.32211 17.6667 4.42857C17.6667 2.53503 16.1743 1 14.3333 1M21 17V15.8571C21 13.3325 19.0101 11.2857 16.5556 11.2857H16M11 4.42857C11 6.32211 9.50767 7.85714 7.66667 7.85714C5.82572 7.85714 4.33333 6.32211 4.33333 4.42857C4.33333 2.53503 5.82572 1 7.66667 1C9.50767 1 11 2.53503 11 4.42857Z" stroke="#5AC3B0" stroke-width="2" stroke-linecap="round" stroke-linejoin="round"/>
</svg>
