<svg width="27" height="26" viewBox="0 0 27 26" fill="none" xmlns="http://www.w3.org/2000/svg">
<path d="M13.5 9.77599C12.8378 9.77599 12.1905 9.96506 11.64 10.3193C11.0894 10.6736 10.6603 11.1771 10.4069 11.7662C10.1535 12.3553 10.0871 13.0035 10.2163 13.6289C10.3455 14.2544 10.6644 14.8288 11.1326 15.2796C11.6008 15.7306 12.1974 16.0376 12.8468 16.162C13.4963 16.2865 14.1694 16.2226 14.7812 15.9786C15.393 15.7346 15.9159 15.3213 16.2838 14.7911C16.6516 14.2609 16.8481 13.6376 16.8481 12.9999C16.8481 12.5765 16.7614 12.1574 16.5931 11.7662C16.4248 11.3751 16.1783 11.0196 15.8674 10.7203C15.5566 10.4209 15.1875 10.1834 14.7812 10.0214C14.375 9.85938 13.9397 9.77599 13.5 9.77599ZM26.9055 6.59099C26.8984 5.58708 26.7064 4.59234 26.3384 3.653C26.0676 2.96563 25.6482 2.34142 25.1084 1.82153C24.5685 1.30165 23.9203 0.897929 23.2065 0.637004C22.231 0.282702 21.1981 0.0978386 20.1555 0.0910001C18.414 2.76706e-08 17.9009 0 13.5 0C9.099 0 8.586 2.76706e-08 6.84449 0.0910001C5.80197 0.0978386 4.76897 0.282702 3.7935 0.637004C3.0797 0.897929 2.43148 1.30165 1.8916 1.82153C1.35173 2.34142 0.932469 2.96563 0.6615 3.653C0.293576 4.59234 0.101602 5.58708 0.0944993 6.59099C-1.34096e-07 8.26798 0 8.76199 0 12.9999C0 17.238 -1.34096e-07 17.732 0.0944993 19.409C0.109031 20.4164 0.300746 21.4142 0.6615 22.36C0.931268 23.0441 1.35017 23.6648 1.89 24.1799C2.42756 24.703 3.07718 25.1067 3.7935 25.3629C4.76897 25.7172 5.80197 25.9021 6.84449 25.909C8.586 26 9.099 26 13.5 26C17.9009 26 18.414 26 20.1555 25.909C21.1981 25.9021 22.231 25.7172 23.2065 25.3629C23.9228 25.1067 24.5724 24.703 25.1099 24.1799C25.6499 23.6648 26.0687 23.0441 26.3384 22.36C26.7061 21.4161 26.8981 20.417 26.9055 19.409C27 17.732 27 17.238 27 12.9999C27 8.76199 27 8.26798 26.9055 6.59099ZM23.4765 16.991C23.4332 17.7932 23.2554 18.5834 22.95 19.331C22.6879 19.9545 22.2983 20.521 21.8043 20.9968C21.3103 21.4724 20.722 21.8476 20.0745 22.0999C19.2908 22.3776 18.4657 22.5312 17.631 22.555C16.5645 22.555 16.281 22.555 13.5 22.555C10.719 22.555 10.4355 22.555 9.369 22.555C8.53433 22.5312 7.70916 22.3776 6.9255 22.0999C6.25604 21.8604 5.65148 21.4782 5.157 20.9819C4.66785 20.5156 4.29009 19.9522 4.05 19.331C3.7605 18.5771 3.60532 17.7815 3.591 16.978C3.591 15.951 3.591 15.678 3.591 12.9999C3.591 10.322 3.591 10.049 3.591 9.02199C3.60532 8.21836 3.7605 7.42284 4.05 6.66899C4.29878 6.02432 4.69567 5.44215 5.211 4.96599C5.69745 4.4975 6.2819 4.13412 6.9255 3.9C7.70916 3.62232 8.53433 3.46867 9.369 3.445C10.4355 3.445 10.719 3.445 13.5 3.445C16.281 3.445 16.5645 3.445 17.631 3.445C18.4657 3.46867 19.2908 3.62232 20.0745 3.9C20.744 4.13955 21.3485 4.52175 21.843 5.01799C22.3322 5.48436 22.7099 6.04776 22.95 6.66899C23.2384 7.42362 23.3979 8.21824 23.4225 9.02199C23.4225 10.049 23.4225 10.322 23.4225 12.9999C23.4225 15.678 23.517 15.951 23.4765 16.978V16.991ZM21.3165 7.31898C21.1558 6.89907 20.9024 6.51773 20.5737 6.20127C20.2451 5.88481 19.8491 5.64077 19.413 5.48598C18.8142 5.28613 18.1836 5.18932 17.55 5.19999C16.497 5.19999 16.2 5.19999 13.5 5.19999C10.8 5.19999 10.503 5.19999 9.45 5.19999C8.81316 5.20598 8.18245 5.32042 7.58701 5.53799C7.1576 5.68574 6.76578 5.91982 6.43758 6.22465C6.10939 6.52949 5.85234 6.8981 5.6835 7.30599C5.48745 7.88497 5.39166 8.49106 5.39999 9.09999C5.39999 10.114 5.39999 10.4 5.39999 12.9999C5.39999 15.6 5.39999 15.886 5.39999 16.9C5.41338 17.5125 5.53199 18.1188 5.751 18.6939C5.91173 19.1138 6.16516 19.4953 6.49379 19.8117C6.82242 20.1281 7.21843 20.3722 7.6545 20.527C8.2305 20.731 8.83663 20.845 9.45 20.8649C10.503 20.8649 10.8 20.8649 13.5 20.8649C16.2 20.8649 16.497 20.8649 17.55 20.8649C18.1869 20.859 18.8176 20.7445 19.413 20.527C19.8491 20.3722 20.2451 20.1281 20.5737 19.8117C20.9024 19.4953 21.1558 19.1138 21.3165 18.6939C21.5425 18.1206 21.6613 17.5133 21.6676 16.9C21.6676 15.886 21.6676 15.6 21.6676 12.9999C21.6676 10.4 21.6676 10.114 21.6676 9.09999C21.6679 8.48612 21.5489 7.87763 21.3165 7.30599V7.31898ZM13.5 17.966C12.8234 17.966 12.1535 17.8374 11.5285 17.5877C10.9036 17.338 10.336 16.972 9.85821 16.5107C9.38042 16.0494 9.00183 15.5018 8.74414 14.8995C8.48646 14.2969 8.35473 13.6515 8.3565 12.9999C8.3565 12.0172 8.6593 11.0566 9.22655 10.2397C9.79381 9.42274 10.6 8.78625 11.5431 8.41077C12.4862 8.03529 13.5238 7.9377 14.5245 8.13038C15.5253 8.32304 16.4441 8.79731 17.1648 9.49312C17.8855 10.1889 18.3756 11.075 18.573 12.0391C18.7705 13.0033 18.6665 14.0022 18.274 14.9094C17.8817 15.8165 17.2186 16.5912 16.3688 17.1353C15.5189 17.6795 14.5205 17.9686 13.5 17.966ZM18.9 9.00899C18.6016 8.97857 18.3254 8.84288 18.1246 8.62805C17.924 8.41322 17.8129 8.13447 17.8129 7.84549C17.8129 7.55651 17.924 7.27775 18.1246 7.06292C18.3254 6.8481 18.6016 6.71241 18.9 6.68199C19.1985 6.71241 19.4746 6.8481 19.6753 7.06292C19.8761 7.27775 19.987 7.55651 19.987 7.84549C19.987 8.13447 19.8761 8.41322 19.6753 8.62805C19.4746 8.84288 19.1985 8.97857 18.9 9.00899Z" fill="black"/>
</svg>
