<svg width="26" height="26" viewBox="0 0 26 26" fill="none" xmlns="http://www.w3.org/2000/svg">
<path fill-rule="evenodd" clip-rule="evenodd" d="M22.6675 0H3.33227C1.50139 0 0 1.50145 0 3.33238V22.6675C0 24.4986 1.50139 26 3.33227 26H22.6675C24.4986 26 26 24.4986 26 22.6675V3.33238C26 1.50145 24.4986 0 22.6675 0ZM19.7151 12.0946C19.0695 14.9259 17.08 16.8652 14.3825 16.8652C13.2707 16.8652 12.2241 16.2829 11.8659 15.6227C11.8659 15.6227 11.2692 17.9176 11.1424 18.3617C10.6959 19.928 9.38469 21.496 9.28249 21.6234C9.21119 21.7129 9.05378 21.6855 9.03711 21.5662C9.00883 21.3679 8.67517 19.3909 9.06814 17.7785C9.26541 16.9683 10.3937 12.3479 10.3937 12.3479C10.3937 12.3479 10.2308 12.0299 10.1343 11.5142C10.087 11.2685 10.0631 11.0188 10.063 10.7685C10.063 9.29142 10.9497 8.18977 12.052 8.18977C12.9873 8.18977 13.44 8.87053 13.44 9.68629C13.44 10.1625 13.2764 10.7638 13.0749 11.41C12.8916 11.9967 12.6788 12.6207 12.5304 13.2228C12.2715 14.2806 13.079 15.1428 14.1578 15.1428C15.6706 15.1428 16.801 13.6813 17.232 11.6825C17.3552 11.106 17.4214 10.4855 17.4214 9.84196C17.4214 7.65856 15.9022 6.02284 13.1361 6.02284C10.0131 6.02284 8.06438 8.27823 8.06438 10.7973C8.06438 11.1441 8.10739 11.4489 8.18517 11.7219C8.30185 12.132 8.49484 12.468 8.74537 12.7521C8.93635 12.97 8.96111 13.0565 8.89297 13.3064C8.8419 13.4926 8.73026 13.9326 8.68248 14.1077C8.61428 14.3621 8.40427 14.4503 8.16633 14.3583C7.1682 13.9622 6.53883 13.1047 6.24904 12.0432C6.12115 11.5774 6.05789 11.0726 6.05789 10.5491C6.05789 7.71836 8.52593 4.32342 13.4182 4.32239C17.3513 4.32239 19.9413 7.07545 19.9413 10.0321C19.941 10.7574 19.8631 11.449 19.7151 12.0946Z" fill="black"/>
</svg>
