<svg width="26" height="27" viewBox="0 0 26 27" fill="none" xmlns="http://www.w3.org/2000/svg">
<path d="M21.1249 0.31543C22.4679 0.31543 23.6161 0.792204 24.5697 1.74577C25.5231 2.69932 26 3.84754 26 5.19042V21.4403C26 22.7833 25.5231 23.9315 24.5697 24.8851C23.6161 25.8386 22.4679 26.3154 21.1249 26.3154H17.9426V16.2438H21.3111L21.8189 12.3167H17.9426V9.8115C17.9426 9.17956 18.0753 8.70561 18.3405 8.38963C18.6057 8.07367 19.1219 7.91568 19.8893 7.91568L21.9543 7.89876V4.39486C21.2434 4.29329 20.2392 4.24251 18.9414 4.24251C17.4067 4.24251 16.1794 4.6939 15.2597 5.59667C14.34 6.49945 13.8801 7.77461 13.8801 9.42219V12.3167H10.4948V16.2438H13.8801V26.3154H4.87499C3.53211 26.3154 2.38389 25.8386 1.43034 24.8851C0.476779 23.9315 0 22.7833 0 21.4403V5.19042C0 3.84754 0.476779 2.69932 1.43034 1.74577C2.38389 0.792204 3.53211 0.31543 4.87499 0.31543H21.1249Z" fill="black"/>
</svg>
