<svg width="22" height="21" viewBox="0 0 22 21" fill="none" xmlns="http://www.w3.org/2000/svg">
<path d="M10.9677 11.7923C14.2258 11.7923 16.8387 9.14308 16.8387 5.91231C16.8387 2.68154 14.2258 0 10.9677 0C7.70968 0 5.09678 2.64923 5.09678 5.88C5.09678 9.11077 7.70968 11.7923 10.9677 11.7923ZM10.9677 1.55077C13.3548 1.55077 15.2903 3.48923 15.2903 5.88C15.2903 8.27077 13.3548 10.2092 10.9677 10.2092C8.58065 10.2092 6.64516 8.30308 6.64516 5.91231C6.64516 3.52154 8.58065 1.55077 10.9677 1.55077ZM0.774193 21H21.2258C21.6452 21 22 20.6446 22 20.2246C22 16.1538 18.6774 12.8262 14.6129 12.8262H7.3871C3.32258 12.8262 0 16.1538 0 20.2246C0 20.6446 0.354839 21 0.774193 21ZM7.3871 14.3769H14.6129C17.5806 14.3769 20 16.5738 20.3871 19.4492H1.6129C2 16.5738 4.41935 14.3769 7.3871 14.3769Z" fill="black"/>
</svg>
