<svg width="23" height="21" viewBox="0 0 23 21" fill="none" xmlns="http://www.w3.org/2000/svg">
<path d="M11.5 21C11.3786 21.0001 11.2585 20.9762 11.1464 20.9295C11.0343 20.8829 10.9324 20.8145 10.8467 20.7282L2.02631 11.8736C-0.675438 9.16143 -0.675438 4.74805 2.02631 2.03584C4.62088 -0.570629 8.77977 -0.675445 11.5 1.72789C14.2184 -0.672662 18.3773 -0.571557 20.9737 2.03584C23.6754 4.74805 23.6754 9.16236 20.9737 11.8736L12.1533 20.7282C12.0676 20.8145 11.9657 20.8829 11.8536 20.9295C11.7415 20.9762 11.6214 21.0001 11.5 21ZM6.92716 1.85496C6.25973 1.85379 5.59864 1.98495 4.98183 2.2409C4.36502 2.49686 3.80464 2.87258 3.33284 3.3465C2.38097 4.30383 1.84636 5.60119 1.84636 6.95381C1.84636 8.30644 2.38097 9.6038 3.33284 10.5611L11.5 18.7599L19.6672 10.5611C20.619 9.6038 21.1536 8.30644 21.1536 6.95381C21.1536 5.60119 20.619 4.30383 19.6672 3.3465C18.7135 2.39094 17.4212 1.85426 16.0738 1.85426C14.7264 1.85426 13.434 2.39094 12.4804 3.3465L12.1533 3.67486C12.0675 3.76107 11.9657 3.82947 11.8536 3.87613C11.7415 3.9228 11.6214 3.94682 11.5 3.94682C11.3786 3.94682 11.2585 3.9228 11.1464 3.87613C11.0343 3.82947 10.9325 3.76107 10.8467 3.67486L10.5196 3.3465C10.0482 2.87259 9.48816 2.49687 8.87165 2.2409C8.25514 1.98494 7.59432 1.85378 6.92716 1.85496Z" fill="black"/>
</svg>
