<svg width="18" height="12" viewBox="0 0 18 12" fill="none" xmlns="http://www.w3.org/2000/svg">
<path d="M8.92308 11.1527C7.7855 11.1527 6.61075 10.8701 5.42857 10.3162C4.5029 9.88128 3.56979 9.27903 2.65527 8.52437C1.11248 7.24924 0.160785 5.98527 0.119891 5.93323C-0.0399638 5.72133 -0.0399638 5.43136 0.119891 5.21946C0.160785 5.16741 1.11248 3.90344 2.65527 2.62832C3.56979 1.87365 4.5029 1.27141 5.42857 0.836451C6.61075 0.282535 7.7855 0 8.92308 0C10.0607 0 11.2354 0.282535 12.4176 0.836451C13.3433 1.27141 14.2764 1.87365 15.1909 2.62832C16.7337 3.90344 17.6891 5.16741 17.7263 5.21946C17.8861 5.43136 17.8861 5.72133 17.7263 5.93323C17.6854 5.98527 16.7337 7.24924 15.1909 8.52437C14.2764 9.27903 13.3433 9.88128 12.4176 10.3162C11.2354 10.8701 10.0607 11.1527 8.92308 11.1527ZM1.36156 5.57634C2.29466 6.68046 5.37652 9.96306 8.92308 9.96306C12.4771 9.96306 15.5515 6.68046 16.4846 5.57634C15.5515 4.47223 12.4696 1.18962 8.92308 1.18962C5.36909 1.18962 2.29466 4.47223 1.36156 5.57634Z" fill="#DE5935"/>
<path d="M8.92274 8.25295C7.44687 8.25295 6.24609 7.05217 6.24609 5.5763C6.24609 4.10043 7.44687 2.89966 8.92274 2.89966C10.3986 2.89966 11.5994 4.10043 11.5994 5.5763C11.5994 7.05217 10.3986 8.25295 8.92274 8.25295ZM8.92274 4.08928C8.10116 4.08928 7.43571 4.75472 7.43571 5.5763C7.43571 6.39788 8.10116 7.06333 8.92274 7.06333C9.74432 7.06333 10.4098 6.39788 10.4098 5.5763C10.4098 4.75472 9.74432 4.08928 8.92274 4.08928Z" fill="#DE5935"/>
</svg>
